<?xml version="1.0" standalone="no"?>
<!DOCTYPE svg PUBLIC "-//W3C//DTD SVG 20010904//EN"
 "http://www.w3.org/TR/2001/REC-SVG-20010904/DTD/svg10.dtd">
<svg version="1.0" xmlns="http://www.w3.org/2000/svg"
 width="700.000000pt" height="700.000000pt" viewBox="0 0 700.000000 700.000000"
 preserveAspectRatio="xMidYMid meet">
<metadata>
Created by potrace 1.14, written by Peter Selinger 2001-2017
</metadata>
<g transform="translate(0.000000,700.000000) scale(0.100000,-0.100000)"
fill="#000000" stroke="none">
<path d="M441 6980 c-102 -27 -194 -81 -271 -159 -77 -78 -123 -160 -150 -267
-20 -76 -20 -122 -20 -3054 0 -2943 0 -2978 20 -3055 53 -209 216 -372 425
-425 77 -20 112 -20 3055 -20 2943 0 2978 0 3055 20 209 53 372 216 425 425
20 77 20 112 20 3055 0 2943 0 2978 -20 3055 -27 105 -80 197 -159 275 -78 77
-160 123 -267 150 -76 20 -121 20 -3058 19 -2914 0 -2983 -1 -3055 -19z m2944
-1428 c275 -43 477 -114 654 -229 87 -57 230 -206 289 -303 58 -94 120 -246
147 -357 l17 -73 549 0 549 0 0 -175 0 -175 -528 0 -529 0 -7 -147 c-3 -82
-14 -191 -23 -243 -15 -85 -17 -220 -20 -1243 l-3 -1147 -210 0 -210 0 0 790
0 791 -43 -29 c-110 -76 -282 -144 -469 -186 -223 -50 -340 -58 -883 -60
l-500 -1 -3 1408 -2 1409 547 -5 c492 -4 561 -6 678 -25z"/>
<path d="M2540 4175 l0 -1097 358 4 c320 4 368 7 466 27 327 67 525 207 649
459 l42 87 0 290 0 290 -552 3 -553 2 0 175 0 175 565 0 c311 0 565 2 565 3 0
10 -42 131 -60 173 -66 152 -204 294 -363 373 -197 98 -336 121 -779 128
l-338 5 0 -1097z"/>
</g>
</svg>
